<?xml version="1.0" encoding="UTF-8"?>
<svg id="Layer_1" data-name="Layer 1" xmlns="http://www.w3.org/2000/svg" viewBox="0 0 256 256">
  <rect width="256" height="256" fill="#0fb763"/>
  <g>
    <circle cx="101.38" cy="190.51" r="11.23" fill="#0a934b"/>
    <circle cx="173.89" cy="190.51" r="11.23" fill="#0a934b"/>
    <path d="m210.72,88.63l-10.62-23.93-20.96,15.68,11,2.87-20.49,68.67c-.41,1.38-1.68,2.33-3.12,2.33h-1.35c-1.8,0-3.26-1.46-3.26-3.26v-25.82c0-1.8,1.46-3.26,3.26-3.26h.63c1.8,0,3.26-1.46,3.26-3.26v-3.49c0-1.8-1.46-3.26-3.26-3.26h-68.92c-1.43,0-2.69-.93-3.11-2.3l-1.87-6.05c-.36-1.16-1.34-2.03-2.54-2.25l-31.19-5.61c-1.77-.32-3.46.86-3.78,2.63l-.62,3.43c-.32,1.77.86,3.46,2.63,3.78l25.2,4.53c1.2.22,2.18,1.08,2.54,2.25l15.3,49.62c.42,1.37,1.68,2.3,3.11,2.3h71.41c1.44,0,2.71-.95,3.12-2.33l22.72-76.14,10.9,2.85Zm-100.78,65.62c-1.43,0-2.69-.93-3.11-2.3l-7.96-25.82c-.65-2.09.92-4.22,3.11-4.22h4.85c1.65,0,3.04,1.23,3.23,2.87l3.11,25.82c.23,1.94-1.28,3.65-3.23,3.65Zm21.7-3.26c0,1.8-1.46,3.26-3.26,3.26h-1.81c-1.65,0-3.04-1.23-3.23-2.87l-3.11-25.82c-.23-1.94,1.28-3.65,3.23-3.65h4.92c1.8,0,3.26,1.46,3.26,3.26v25.82Zm20.28,0c0,1.8-1.46,3.26-3.26,3.26h-3.76c-1.8,0-3.26-1.46-3.26-3.26v-25.82c0-1.8,1.46-3.26,3.26-3.26h3.76c1.8,0,3.26,1.46,3.26,3.26v25.82Z" fill="#0a934b"/>
  </g>
  <g>
    <circle cx="94.37" cy="181.6" r="11.23" fill="#fff"/>
    <circle cx="166.88" cy="181.6" r="11.23" fill="#fff"/>
    <path d="m203.71,79.73l-10.62-23.93-20.96,15.68,11,2.87-20.49,68.67c-.41,1.38-1.68,2.33-3.12,2.33h-1.35c-1.8,0-3.26-1.46-3.26-3.26v-25.82c0-1.8,1.46-3.26,3.26-3.26h.63c1.8,0,3.26-1.46,3.26-3.26v-3.49c0-1.8-1.46-3.26-3.26-3.26h-68.92c-1.43,0-2.69-.93-3.11-2.3l-1.87-6.05c-.36-1.16-1.34-2.03-2.54-2.25l-31.19-5.61c-1.77-.32-3.46.86-3.78,2.63l-.62,3.43c-.32,1.77.86,3.46,2.63,3.78l25.2,4.53c1.2.22,2.18,1.08,2.54,2.25l15.3,49.62c.42,1.37,1.68,2.3,3.11,2.3h71.41c1.44,0,2.71-.95,3.12-2.33l22.72-76.14,10.9,2.85Zm-100.78,65.62c-1.43,0-2.69-.93-3.11-2.3l-7.96-25.82c-.65-2.09.92-4.22,3.11-4.22h4.85c1.65,0,3.04,1.23,3.23,2.87l3.11,25.82c.23,1.94-1.28,3.65-3.23,3.65Zm21.7-3.26c0,1.8-1.46,3.26-3.26,3.26h-1.81c-1.65,0-3.04-1.23-3.23-2.87l-3.11-25.82c-.23-1.94,1.28-3.65,3.23-3.65h4.92c1.8,0,3.26,1.46,3.26,3.26v25.82Zm20.28,0c0,1.8-1.46,3.26-3.26,3.26h-3.76c-1.8,0-3.26-1.46-3.26-3.26v-25.82c0-1.8,1.46-3.26,3.26-3.26h3.76c1.8,0,3.26,1.46,3.26,3.26v25.82Z" fill="#fff"/>
  </g>
</svg>